<svg width="14" height="14" viewBox="0 0 14 14" fill="none" xmlns="http://www.w3.org/2000/svg">
<path d="M14 7C14 3.13418 10.8658 0 7 0C3.13418 0 0 3.13418 0 7C0 10.8658 3.13418 14 7 14C10.8658 14 14 10.8658 14 7ZM6.84351 10.0746C6.7933 10.0248 6.75339 9.96561 6.72606 9.90038C6.69873 9.83515 6.68452 9.76517 6.68424 9.69445C6.68396 9.62373 6.69761 9.55364 6.72442 9.4882C6.75123 9.42275 6.79067 9.36323 6.84048 9.31303L8.60125 7.53846H4.10577C3.96296 7.53846 3.826 7.48173 3.72502 7.38075C3.62404 7.27977 3.56731 7.14281 3.56731 7C3.56731 6.85719 3.62404 6.72023 3.72502 6.61925C3.826 6.51827 3.96296 6.46154 4.10577 6.46154H8.60125L6.84048 4.68697C6.79067 4.63672 6.75125 4.57715 6.72446 4.51167C6.69768 4.44618 6.68405 4.37606 6.68436 4.30531C6.68468 4.23456 6.69892 4.16456 6.72628 4.09932C6.75365 4.03407 6.7936 3.97486 6.84385 3.92505C6.8941 3.87524 6.95366 3.83582 7.01915 3.80903C7.08463 3.78224 7.15475 3.76862 7.2255 3.76893C7.36839 3.76956 7.50518 3.82693 7.60577 3.92841L10.2775 6.62072C10.3776 6.72158 10.4338 6.85791 10.4338 7C10.4338 7.14209 10.3776 7.27842 10.2775 7.37928L7.60577 10.0716C7.55595 10.1219 7.49671 10.1619 7.43141 10.1893C7.36612 10.2167 7.29607 10.2309 7.22527 10.2312C7.15447 10.2315 7.0843 10.2178 7.0188 10.1909C6.95329 10.1641 6.89372 10.1245 6.84351 10.0746Z" fill="black"/>
</svg>
