<svg width="15" height="15" viewBox="0 0 15 15" fill="none" xmlns="http://www.w3.org/2000/svg">
<path fill-rule="evenodd" clip-rule="evenodd" d="M9.66854 0.602783L5.26999 0.60878L4.12963 0.647761C2.06364 0.837416 0.747043 2.24146 0.750005 4.41462L0.75815 10.6597C0.761112 13.0203 2.2584 14.5031 4.61391 14.5001L10.4039 14.4926C12.7742 14.4888 14.2529 13.0406 14.25 10.6867L14.2418 4.3674C14.2396 2.20848 12.8749 0.800684 10.8089 0.638765L9.66854 0.602783ZM13.1022 4.63125L1.8911 4.64624L1.89036 4.41311C1.88814 2.78717 2.68714 1.93859 4.1311 1.79392L5.27147 1.76318L9.67001 1.75719L10.8104 1.78567C12.2617 1.91161 13.0704 2.75718 13.1022 4.36888V4.63125ZM9.92985 8.05329V8.06154C9.93725 8.40637 10.2186 8.66798 10.56 8.66049C10.8932 8.65224 11.1591 8.36664 11.1517 8.02181C11.1361 7.69197 10.8688 7.42286 10.5363 7.42361C10.1957 7.4311 9.92911 7.70847 9.92985 8.05329ZM10.5417 11.4191C10.2011 11.4116 9.92633 11.1275 9.92559 10.7827C9.91818 10.4378 10.1914 10.1522 10.5321 10.144H10.5395C10.8875 10.144 11.1696 10.4281 11.1696 10.7804C11.1704 11.1327 10.889 11.4184 10.5417 11.4191ZM6.87915 8.06526C6.89396 8.41008 7.17609 8.6792 7.51672 8.66421C7.84994 8.64847 8.11578 8.36361 8.10097 8.01878C8.09282 7.68145 7.81884 7.41908 7.48562 7.41983C7.14499 7.43482 6.87841 7.72043 6.87915 8.06526ZM7.51969 11.3853C7.17906 11.4003 6.89767 11.1312 6.88212 10.7864C6.88212 10.4416 7.14796 10.1567 7.48859 10.141C7.82181 10.1402 8.09654 10.4026 8.10394 10.7392C8.11949 11.0847 7.85291 11.3696 7.51969 11.3853ZM3.8282 8.09151C3.84301 8.43634 4.12514 8.7062 4.46577 8.69046C4.799 8.67547 5.06483 8.38986 5.04928 8.04504C5.04188 7.7077 4.76789 7.44534 4.43393 7.44608C4.0933 7.46108 3.82746 7.74668 3.8282 8.09151ZM4.46874 11.3891C4.12812 11.4049 3.84673 11.135 3.83118 10.7902C3.83044 10.4453 4.09702 10.1597 4.43764 10.1447C4.77087 10.144 5.04559 10.4064 5.053 10.7437C5.06855 11.0885 4.80271 11.3741 4.46874 11.3891Z" fill="white"/>
</svg>
