<svg width="16" height="14" viewBox="0 0 16 14" fill="none" xmlns="http://www.w3.org/2000/svg">
<path d="M13.7812 0.8125H1.96875C1.44678 0.813058 0.946342 1.02066 0.57725 1.38975C0.208159 1.75884 0.000558361 2.25928 0 2.78125V11.2188C0.000558361 11.7407 0.208159 12.2412 0.57725 12.6103C0.946342 12.9793 1.44678 13.1869 1.96875 13.1875H13.7812C14.3032 13.1869 14.8037 12.9793 15.1728 12.6103C15.5418 12.2412 15.7494 11.7407 15.75 11.2188V2.78125C15.7494 2.25928 15.5418 1.75884 15.1728 1.38975C14.8037 1.02066 14.3032 0.813058 13.7812 0.8125ZM13.2827 4.06902L8.22023 8.00652C8.12152 8.08327 8.00004 8.12493 7.875 8.12493C7.74996 8.12493 7.62848 8.08327 7.52977 8.00652L2.46727 4.06902C2.40779 4.02411 2.35783 3.96782 2.32029 3.90342C2.28275 3.83903 2.25839 3.76782 2.24861 3.69393C2.23883 3.62004 2.24384 3.54494 2.26334 3.473C2.28283 3.40106 2.31643 3.33371 2.36218 3.27487C2.40793 3.21603 2.46492 3.16687 2.52984 3.13024C2.59475 3.09362 2.6663 3.07025 2.74032 3.06152C2.81434 3.05278 2.88936 3.05884 2.96102 3.07935C3.03267 3.09986 3.09954 3.1344 3.15773 3.18098L7.875 6.84988L12.5923 3.18098C12.7102 3.0919 12.8585 3.05283 13.005 3.07222C13.1516 3.09161 13.2846 3.1679 13.3753 3.28459C13.466 3.40128 13.5072 3.549 13.4899 3.69579C13.4725 3.84259 13.3981 3.97666 13.2827 4.06902Z" fill="#0A8E60"/>
</svg>
