<svg width="18" height="20" viewBox="0 0 18 20" fill="none" xmlns="http://www.w3.org/2000/svg">
<path fill-rule="evenodd" clip-rule="evenodd" d="M5.92573 14.39H11.3119C11.7178 14.39 12.0544 14.05 12.0544 13.64C12.0544 13.23 11.7178 12.9 11.3119 12.9H5.92573C5.51979 12.9 5.18316 13.23 5.18316 13.64C5.18316 14.05 5.51979 14.39 5.92573 14.39ZM9.27227 7.89999H5.92573C5.51979 7.89999 5.18316 8.23999 5.18316 8.64999C5.18316 9.05999 5.51979 9.38999 5.92573 9.38999H9.27227C9.67821 9.38999 10.0148 9.05999 10.0148 8.64999C10.0148 8.23999 9.67821 7.89999 9.27227 7.89999ZM16.3381 7.02561C16.5708 7.02292 16.8242 7.02 17.0545 7.02C17.302 7.02 17.5 7.22 17.5 7.47V15.51C17.5 17.99 15.5099 20 13.0545 20H5.17327C2.59901 20 0.5 17.89 0.5 15.29V4.51C0.5 2.03 2.5 0 4.96535 0H10.2525C10.5099 0 10.7079 0.21 10.7079 0.46V3.68C10.7079 5.51 12.203 7.01 14.0149 7.02C14.4381 7.02 14.8112 7.02316 15.1377 7.02593C15.3917 7.02809 15.6175 7.03 15.8168 7.03C15.9578 7.03 16.1405 7.02789 16.3381 7.02561ZM16.6111 5.566C15.7972 5.569 14.8378 5.566 14.1477 5.559C13.0527 5.559 12.1507 4.64799 12.1507 3.542V0.905995C12.1507 0.474995 12.6685 0.260995 12.9645 0.571995C13.5004 1.13473 14.2368 1.90826 14.9697 2.67825C15.7008 3.44624 16.4286 4.21071 16.9507 4.759C17.2398 5.062 17.0279 5.565 16.6111 5.566Z" fill="#0A8E60"/>
</svg>
