<svg width="18" height="18" viewBox="0 0 18 18" fill="none" xmlns="http://www.w3.org/2000/svg">
<path d="M14.1429 6H13.2857V4.28571C13.2857 1.88571 11.4 0 9 0C6.6 0 4.71429 1.88571 4.71429 4.28571V6H3.85715C2.91429 6 2.14286 6.77143 2.14286 7.71429V16.2857C2.14286 17.2286 2.91429 18 3.85715 18H14.1429C15.0857 18 15.8571 17.2286 15.8571 16.2857V7.71429C15.8571 6.77143 15.0857 6 14.1429 6ZM9 1.62857C10.4571 1.62857 11.6571 2.82857 11.6571 4.28571V6H6.42857V4.28571H6.34286C6.34286 2.82857 7.54286 1.62857 9 1.62857ZM14.1429 16.2857H3.85715V7.71429H14.1429V16.2857ZM9 13.7143C9.94286 13.7143 10.7143 12.9429 10.7143 12C10.7143 11.0571 9.94286 10.2857 9 10.2857C8.05715 10.2857 7.28572 11.0571 7.28572 12C7.28572 12.9429 8.05715 13.7143 9 13.7143Z" fill="#C1C1C1"/>
</svg>
