<svg width="96" height="36" viewBox="0 0 96 36" fill="none" xmlns="http://www.w3.org/2000/svg">
<path fill-rule="evenodd" clip-rule="evenodd" d="M43.4111 19.1298C42.2482 18.7117 41.7901 18.0221 41.4171 17.2329C41.2443 17.6778 40.9761 18.0786 40.6318 18.4065C40.2876 18.7345 39.8757 18.9815 39.4258 19.1298C39.8756 19.2792 40.2873 19.5269 40.6315 19.8552C40.9757 20.1836 41.2439 20.5845 41.4171 21.0295C41.5909 20.5844 41.8596 20.1835 42.2043 19.8551C42.5489 19.5268 42.961 19.2792 43.4111 19.1298Z" fill="#DEB88A"/>
<path fill-rule="evenodd" clip-rule="evenodd" d="M35.8463 23.0759L37.7526 18.9054L38.0269 18.2851L41.4665 10.7999L44.9005 18.2768L45.1748 18.8971L47.0811 23.0676H48.65L42.2592 9.04421H41.3869L34.9741 23.0759H35.8463ZM49.9446 19.0882C49.9446 21.4725 52.0484 23.195 55.4825 23.195C58.719 23.195 61.0834 21.5916 61.0834 19.2267C61.0834 17.5651 59.8902 16.2802 57.8852 15.779C59.7119 15.2971 60.7844 14.1174 60.7844 12.5916C60.7844 10.4067 58.5599 8.92236 55.4825 8.92236C52.1087 8.92236 49.9967 10.5839 49.9967 12.8713H51.5081C51.5081 10.9688 52.9974 9.54821 55.4194 9.54821C57.6137 9.54821 59.2319 10.7694 59.2319 12.5944C59.2319 14.2559 57.9017 15.4217 55.6662 15.4217H53.7462V16.1639H55.6662C58.1101 16.1639 59.5583 17.4267 59.5583 19.2488C59.5583 21.2344 57.8715 22.5719 55.5071 22.5719C52.9865 22.5719 51.4587 21.0876 51.4587 19.0854L49.9446 19.0882ZM65.6694 23.0759L75.0418 10.487V23.0759H76.5503V9.04421H75.0418L65.6694 21.6525V9.04421H64.1609V23.0759H65.6694ZM80.4013 23.0759H81.1885V10.1657L87.4038 23.0759H88.2569L94.453 10.1657V23.0759H95.9615V9.04421H94.1348L88.2267 21.3728L82.25 9.04421H80.4013V23.0759Z" fill="white"/>
<path fill-rule="evenodd" clip-rule="evenodd" d="M34.7573 29.5476H36.0931C36.8858 29.5476 37.4124 29.1433 37.4124 28.5341C37.4124 27.9248 36.8858 27.5233 36.0986 27.5233H35.1276V26.2799H37.1134V26.0999H34.7573V29.5476ZM36.0657 27.7061C36.6444 27.7061 37.0312 28.0411 37.0312 28.5368C37.0312 29.0325 36.6444 29.3676 36.0657 29.3676H35.1276V27.7061H36.0657ZM37.7114 29.5781C38.3203 29.5781 38.6001 28.8774 38.6961 27.3627L38.7646 26.2771H40.3857V29.5448H40.756V26.0999H38.5617L38.4849 27.3654C38.4053 28.5867 38.1612 29.207 37.8485 29.207C37.7958 29.2049 37.7434 29.1975 37.6922 29.1848V29.5781H37.7114ZM41.5816 29.5476L42.0506 28.523H43.8856L44.3546 29.5476H44.7413L43.1697 26.0999H42.9557L41.3786 29.5476H41.5816ZM42.953 26.5264L43.7978 28.3707H42.1082L42.953 26.5264ZM45.3283 29.5476H45.7013V26.2799H47.5829V26.0999H45.3283V29.5476ZM47.8956 27.8224C47.8951 28.1692 47.9963 28.5085 48.1866 28.7974C48.3769 29.0862 48.6476 29.3117 48.9647 29.4453C49.2818 29.5789 49.6309 29.6147 49.9681 29.5482C50.3053 29.4816 50.6155 29.3158 50.8594 29.0714C51.1033 28.8271 51.27 28.5153 51.3386 28.1754C51.4071 27.8355 51.3744 27.4827 51.2446 27.1615C51.1147 26.8404 50.8935 26.5653 50.6089 26.3709C50.3244 26.1765 49.9891 26.0716 49.6456 26.0694C49.4139 26.0558 49.182 26.0918 48.9651 26.175C48.7481 26.2582 48.5511 26.3868 48.3869 26.5523C48.2226 26.7179 48.095 26.9166 48.0122 27.1355C47.9294 27.3544 47.8934 27.5884 47.9066 27.8224H47.8956ZM48.2769 27.8224C48.2769 26.8614 48.8254 26.2217 49.6346 26.2217C50.4437 26.2217 51.017 26.8614 51.017 27.8224C51.017 28.7833 50.4684 29.4257 49.6593 29.4257C48.8501 29.4257 48.3016 28.7833 48.3016 27.8224H48.2769ZM54.7884 26.2799V26.0999H51.689V26.2799H53.0604V29.5476H53.4279V26.2799H54.7884ZM56.9498 29.5476C57.7507 29.5476 58.2526 29.1737 58.2526 28.6061C58.2526 28.163 57.9372 27.839 57.4106 27.7199C57.5931 27.6857 57.7588 27.5903 57.8808 27.449C58.0028 27.3077 58.0739 27.129 58.0826 26.9417C58.0826 26.4377 57.6135 26.111 56.862 26.111H55.4385V29.5476H56.9498ZM55.8088 29.3648V27.8224H56.9059C57.5121 27.8224 57.8686 28.1297 57.8686 28.5922C57.8686 29.0547 57.5121 29.3648 56.9059 29.3648H55.8088ZM55.8088 27.6424V26.2799H56.8181C57.3667 26.2799 57.7013 26.5568 57.7013 26.9556C57.7013 27.3544 57.3749 27.6424 56.8181 27.6424H55.8088ZM58.7902 27.8224C58.7897 28.1697 58.8912 28.5094 59.082 28.7985C59.2727 29.0876 59.5441 29.3131 59.8618 29.4464C60.1795 29.5797 60.5293 29.6149 60.8668 29.5474C61.2043 29.48 61.5144 29.313 61.7579 29.0676C62.0013 28.8221 62.1672 28.5093 62.2346 28.1687C62.3019 27.828 62.2676 27.4749 62.1361 27.1539C62.0045 26.8329 61.7816 26.5586 61.4956 26.3655C61.2096 26.1725 60.8733 26.0694 60.5292 26.0694C60.2975 26.0558 60.0656 26.0918 59.8487 26.175C59.6318 26.2582 59.4347 26.3868 59.2705 26.5523C59.1063 26.7179 58.9786 26.9166 58.8958 27.1355C58.8131 27.3544 58.7771 27.5884 58.7902 27.8224ZM59.1715 27.8224C59.1715 26.8614 59.7201 26.2217 60.5292 26.2217C61.3383 26.2217 61.8842 26.8614 61.8842 27.8224C61.8842 28.7833 61.3356 29.4257 60.5292 29.4257C59.7228 29.4257 59.1715 28.7833 59.1715 27.8224ZM63.0417 29.5476H63.4119V28.163H64.3857C65.1701 28.163 65.6967 27.7531 65.6967 27.1328C65.6967 26.5125 65.1701 26.1082 64.3802 26.1082H63.0417V29.5476ZM63.4119 27.9719V26.2799H64.35C64.9315 26.2799 65.3155 26.6205 65.3155 27.1107C65.3155 27.6008 64.9315 27.9581 64.35 27.9581L63.4119 27.9719ZM66.761 29.5476L69.065 26.4544V29.5476H69.4353V26.0999H69.065L66.761 29.1987V26.0999H66.3907V29.5476H66.761ZM73.1847 26.2799V26.0999H70.0853V26.2799H71.4567V29.5476H71.8243V26.2799H73.1847ZM76.3857 29.5476V29.3537H74.2051V27.8611H76.1086V27.6922H74.2051V26.2799H76.3857V26.0999H73.8348V29.5476H76.3857ZM76.8602 29.5781C77.4691 29.5781 77.7489 28.8774 77.8449 27.3627L77.9134 26.2771H79.5427V29.5448H79.913V26.0999H77.7187L77.6419 27.3654C77.5623 28.5867 77.3182 29.207 77.0055 29.207C76.9529 29.2047 76.9005 29.1972 76.8492 29.1848V29.5781H76.8602ZM80.8538 26.0999V29.5476H82.1895C82.9822 29.5476 83.5089 29.1488 83.5089 28.5534C83.5089 27.9581 82.9822 27.5565 82.195 27.5565H81.2433V26.0999H80.8538ZM82.1621 27.7393C82.7409 27.7393 83.1276 28.0661 83.1276 28.5534C83.1276 29.0408 82.7409 29.3648 82.1621 29.3648H81.2433V27.7393H82.1621ZM84.606 29.5476V27.8861H86.899V29.5476H87.2666V26.0999H86.899V27.6922H84.606V26.0999H84.2357V29.5476H84.606ZM88.2129 29.5476H89.5514C90.3413 29.5476 90.8679 29.1488 90.8679 28.5534C90.8679 27.9581 90.3413 27.5565 89.5569 27.5565H88.5941V26.0999H88.2238V29.5476H88.2129ZM89.5212 27.7393C90.1027 27.7393 90.4867 28.0661 90.4867 28.5534C90.4867 29.0408 90.1027 29.3648 89.5212 29.3648H88.5941V27.7393H89.5212ZM91.6113 26.0999V29.5476H91.9761V26.0999H91.6113ZM92.9223 26.0999V29.5476H93.2954L95.5966 26.4544V29.5476H95.9697V26.0999H95.5966L93.2954 29.1987V26.0999H92.9223ZM93.5971 25.0642C93.5971 25.4824 93.9235 25.7427 94.4446 25.7427C94.9658 25.7427 95.2894 25.4824 95.2894 25.0642H95.0151C94.9983 25.2061 94.9305 25.3369 94.8246 25.4317C94.7187 25.5266 94.5821 25.579 94.4405 25.579C94.299 25.579 94.1623 25.5266 94.0564 25.4317C93.9505 25.3369 93.8827 25.2061 93.8659 25.0642H93.5971ZM58.8725 31.5691C57.9619 31.5691 57.3941 32.0981 57.3941 32.8956C57.3941 33.6931 57.9619 34.2193 58.8698 34.2193C58.9728 34.2203 59.0757 34.211 59.177 34.1916V34.6485H59.5336V34.1916C59.6348 34.2112 59.7377 34.2204 59.8407 34.2193C60.7486 34.2193 61.3137 33.6876 61.3137 32.8956C61.3137 32.1036 60.7486 31.5691 59.8353 31.5691C59.7339 31.5688 59.6328 31.579 59.5336 31.5996V31.1399H59.177V31.5996C59.0768 31.579 58.9748 31.5688 58.8725 31.5691ZM59.7969 34.0614C59.7029 34.0625 59.6096 34.0446 59.5226 34.0088V31.7713C59.6089 31.7327 59.7025 31.7138 59.7969 31.7159C60.0952 31.7305 60.3765 31.8605 60.5825 32.0788C60.7885 32.2972 60.9034 32.5871 60.9034 32.8887C60.9034 33.1902 60.7885 33.4802 60.5825 33.6985C60.3765 33.9168 60.0952 34.0468 59.7969 34.0614ZM58.9137 34.0614C58.6153 34.0468 58.3341 33.9168 58.1281 33.6985C57.9221 33.4802 57.8072 33.1902 57.8072 32.8887C57.8072 32.5871 57.9221 32.2972 58.1281 32.0788C58.3341 31.8605 58.6153 31.7305 58.9137 31.7159C59.0079 31.7147 59.1014 31.7336 59.1879 31.7713V34.0088C59.1008 34.0444 59.0076 34.0622 58.9137 34.0614ZM61.9308 32.8901C61.9308 33.2374 62.0329 33.577 62.2241 33.8658C62.4153 34.1545 62.687 34.3796 63.0049 34.5124C63.3229 34.6452 63.6726 34.6798 64.01 34.6118C64.3474 34.5438 64.6573 34.3763 64.9004 34.1305C65.1435 33.8847 65.3089 33.5716 65.3757 33.2309C65.4425 32.8901 65.4076 32.537 65.2756 32.2163C65.1436 31.8955 64.9202 31.6215 64.6339 31.4289C64.3476 31.2363 64.0111 31.1338 63.667 31.1344C63.4353 31.1211 63.2035 31.1574 62.9867 31.241C62.7699 31.3246 62.5731 31.4535 62.4091 31.6193C62.2451 31.7851 62.1178 31.984 62.0353 32.203C61.9529 32.422 61.9173 32.6562 61.9308 32.8901ZM62.3121 32.8901C62.3121 31.9291 62.8606 31.2867 63.667 31.2867C64.4734 31.2867 65.0247 31.9291 65.0247 32.8901C65.0247 33.851 64.4762 34.4907 63.667 34.4907C62.8579 34.4907 62.3121 33.851 62.3121 32.8901ZM66.5415 34.6153V32.9537H68.8455V34.6153H69.2131V31.1704H68.8455V32.7627H66.5415V31.1704H66.1713V34.6153H66.5415ZM69.8028 35.4017H70.0359L70.1429 34.6153H73.1601L73.267 35.4017H73.5084V34.4325H72.9598V31.1648H70.8012L70.7271 32.4304C70.6586 33.5796 70.4529 34.3051 70.1786 34.4325H69.7836V35.4017H69.8028ZM70.4419 34.4325C70.7354 34.1556 70.8698 33.491 70.9383 32.411L71.0069 31.3476H72.5978V34.4325H70.4419Z" fill="white"/>
<path fill-rule="evenodd" clip-rule="evenodd" d="M17.0196 5.19509C14.5651 5.31951 12.1916 6.12181 10.1578 7.51454C8.12393 8.90726 6.5078 10.837 5.48556 13.0933C4.46332 15.3496 4.07421 17.846 4.36063 20.3102C4.64706 22.7745 5.59803 25.112 7.10989 27.0681C8.62175 29.0242 10.6365 30.5238 12.9344 31.4033C15.2324 32.2828 17.7254 32.5085 20.1417 32.0558C22.5579 31.6032 24.8048 30.4895 26.6373 28.8362C28.4697 27.1829 29.8175 25.0535 30.5336 22.68C30.5407 22.6561 30.5566 22.6358 30.578 22.6235C30.5995 22.6111 30.6249 22.6075 30.6488 22.6136C30.6729 22.6189 30.694 22.6334 30.7078 22.654C30.7216 22.6746 30.727 22.6998 30.7229 22.7243C30.6927 22.9403 30.6543 23.1591 30.6159 23.3806C30.0625 26.3567 28.6625 29.1056 26.587 31.2914C24.5115 33.4773 21.8503 35.0056 18.9286 35.6895C16.0069 36.3734 12.9512 36.1833 10.1347 35.1426C7.3182 34.1018 4.86295 32.2553 3.06888 29.8287C1.2748 27.4022 0.219584 24.5006 0.0321419 21.4785C-0.155301 18.4564 0.533146 15.4445 2.01338 12.811C3.4936 10.1774 5.70153 8.03613 8.3674 6.64874C11.0333 5.26134 14.0417 4.6879 17.0251 4.99848C17.0481 5.00239 17.069 5.01441 17.0841 5.03241C17.0991 5.05041 17.1074 5.07322 17.1074 5.09678C17.1074 5.12035 17.0991 5.14316 17.0841 5.16116C17.069 5.17915 17.0481 5.19118 17.0251 5.19509H17.0196ZM3.62895 13.2923C2.18348 15.7069 1.49789 18.5076 1.6628 21.3241C1.82772 24.1405 2.83537 26.8401 4.55255 29.066C6.26973 31.2918 8.61556 32.9391 11.2799 33.7901C13.9443 34.641 16.8017 34.6555 19.4744 33.8317C16.8995 34.139 14.2895 33.7703 11.897 32.7612C9.50449 31.7521 7.41033 30.1369 5.81704 28.0716C4.22375 26.0063 3.18523 23.5609 2.80192 20.9719C2.41861 18.3828 2.70346 15.7377 3.62895 13.2923Z" fill="#DEB88A"/>
<path fill-rule="evenodd" clip-rule="evenodd" d="M7.3809 22.4308C7.3617 17.2385 14.8497 17.5127 15.6753 13.813C16.4982 17.5127 23.9916 17.2385 23.9697 22.4308C22.6284 18.4902 16.5777 19.1548 15.6753 16.3773C14.7756 19.1548 8.72215 18.4902 7.3809 22.4308Z" fill="#DEB88A"/>
<path fill-rule="evenodd" clip-rule="evenodd" d="M10.1896 23.4138C10.4607 23.4145 10.7205 23.5236 10.9122 23.7172C11.1039 23.9107 11.212 24.173 11.2127 24.4467V28.2794C10.4874 27.8609 9.80242 27.3751 9.1665 26.8283V24.4467C9.16723 24.173 9.27525 23.9107 9.46696 23.7172C9.65867 23.5236 9.91847 23.4145 10.1896 23.4138ZM21.161 23.4138C21.4321 23.4145 21.6919 23.5236 21.8836 23.7172C22.0754 23.9107 22.1834 24.173 22.1841 24.4467V29.3372C21.517 29.5673 20.8328 29.7433 20.1379 29.8634V24.4467C20.1387 24.173 20.2467 23.9107 20.4384 23.7172C20.6301 23.5236 20.8899 23.4145 21.161 23.4138ZM17.5048 23.4138C17.7759 23.4145 18.0357 23.5236 18.2274 23.7172C18.4191 23.9107 18.5272 24.173 18.5279 24.4467V30.0434C17.8453 30.0764 17.1613 30.0569 16.4817 29.9852V24.4467C16.4824 24.173 16.5904 23.9107 16.7822 23.7172C16.9739 23.5236 17.2337 23.4145 17.5048 23.4138ZM13.8486 23.4138C14.1197 23.4145 14.3795 23.5236 14.5712 23.7172C14.7629 23.9107 14.8709 24.173 14.8716 24.4467V29.7083C14.1738 29.5542 13.4894 29.3431 12.8255 29.0769V24.4467C12.8262 24.173 12.9342 23.9107 13.1259 23.7172C13.3176 23.5236 13.5774 23.4145 13.8486 23.4138Z" fill="#DEB88A"/>
<path fill-rule="evenodd" clip-rule="evenodd" d="M24.601 15.9509L24.2581 5.53857H27.8897V17.1417H29.4805L27.8897 19.2823V25.5186C27.5359 25.9196 27.1585 26.2987 26.7596 26.654V18.853L27.374 18.1192H23.2844L22.6782 17.1417H26.7596V6.87334H24.8615L24.601 15.9509Z" fill="#DEB88A"/>
<path fill-rule="evenodd" clip-rule="evenodd" d="M24.3235 4.66062C22.9109 4.22031 22.7875 2.44523 24.1617 1.584C24.8858 1.13262 25.8074 0.819692 26.0817 0C26.356 0.830769 27.2748 1.13262 28.0017 1.584C29.3731 2.44246 29.2552 4.22031 27.8398 4.66062C28.4844 4.00154 28.3665 3.33692 28.1141 2.97415C27.8618 2.61138 27.3352 2.38431 26.7646 2.12123C26.498 2.03567 26.2605 1.87642 26.0789 1.66154C25.9002 1.87953 25.6645 2.04262 25.3987 2.13231C24.8282 2.39538 24.3016 2.61692 24.0465 2.98523C23.7914 3.35354 23.6789 4.00154 24.3235 4.66062Z" fill="#DEB88A"/>
<path fill-rule="evenodd" clip-rule="evenodd" d="M21.6986 10.1879C20.4122 9.72548 19.9048 8.96394 19.5043 8.08887C19.0929 8.96394 18.5855 9.72548 17.3101 10.1879C18.5937 10.6532 19.1011 11.4119 19.5043 12.287C19.9048 11.4119 20.4122 10.6532 21.6986 10.1879Z" fill="#DEB88A"/>
</svg>
