<svg width="96" height="36" viewBox="0 0 96 36" fill="none" xmlns="http://www.w3.org/2000/svg">
<g clip-path="url(#clip0)">
<path fill-rule="evenodd" clip-rule="evenodd" d="M43.4112 19.1298C42.2482 18.7117 41.7901 18.0221 41.4171 17.2329C41.2443 17.6778 40.9761 18.0786 40.6318 18.4065C40.2876 18.7345 39.8757 18.9815 39.4258 19.1298C39.8756 19.2792 40.2873 19.5268 40.6315 19.8552C40.9757 20.1836 41.2439 20.5845 41.4171 21.0295C41.5909 20.5844 41.8596 20.1835 42.2043 19.8551C42.5489 19.5268 42.961 19.2792 43.4112 19.1298Z" fill="#DEB88A"/>
<path fill-rule="evenodd" clip-rule="evenodd" d="M35.8463 23.0759L37.7526 18.9054L38.0269 18.2851L41.4665 10.7999L44.9005 18.2768L45.1748 18.8971L47.0811 23.0676H48.65L42.2592 9.04421H41.3869L34.9741 23.0759H35.8463ZM49.9446 19.0882C49.9446 21.4725 52.0484 23.195 55.4825 23.195C58.719 23.195 61.0834 21.5916 61.0834 19.2267C61.0834 17.5651 59.8902 16.2802 57.8852 15.779C59.7119 15.2971 60.7844 14.1174 60.7844 12.5916C60.7844 10.4067 58.5599 8.92236 55.4825 8.92236C52.1087 8.92236 49.9967 10.5839 49.9967 12.8713H51.5081C51.5081 10.9688 52.9974 9.54821 55.4194 9.54821C57.6137 9.54821 59.2319 10.7694 59.2319 12.5944C59.2319 14.2559 57.9017 15.4217 55.6662 15.4217H53.7462V16.1639H55.6662C58.1101 16.1639 59.5583 17.4267 59.5583 19.2488C59.5583 21.2344 57.8715 22.5719 55.5071 22.5719C52.9865 22.5719 51.4587 21.0876 51.4587 19.0854L49.9446 19.0882ZM65.6694 23.0759L75.0418 10.487V23.0759H76.5503V9.04421H75.0418L65.6694 21.6525V9.04421H64.1609V23.0759H65.6694ZM80.4013 23.0759H81.1885V10.1657L87.4038 23.0759H88.2569L94.453 10.1657V23.0759H95.9615V9.04421H94.1348L88.2267 21.3728L82.25 9.04421H80.4013V23.0759Z" fill="#5A556E"/>
<path fill-rule="evenodd" clip-rule="evenodd" d="M34.7578 29.5476H36.0936C36.8863 29.5476 37.4129 29.1433 37.4129 28.5341C37.4129 27.9248 36.8863 27.5233 36.0991 27.5233H35.1281V26.2799H37.1139V26.0999H34.7578V29.5476ZM36.0662 27.7061C36.6449 27.7061 37.0316 28.0411 37.0316 28.5368C37.0316 29.0325 36.6449 29.3676 36.0662 29.3676H35.1281V27.7061H36.0662ZM37.7119 29.5781C38.3208 29.5781 38.6006 28.8774 38.6966 27.3627L38.7651 26.2771H40.3862V29.5448H40.7564V26.0999H38.5622L38.4854 27.3654C38.4058 28.5867 38.1617 29.207 37.849 29.207C37.7963 29.2049 37.7439 29.1975 37.6927 29.1848V29.5781H37.7119ZM41.582 29.5476L42.0511 28.523H43.886L44.3551 29.5476H44.7418L43.1702 26.0999H42.9562L41.3791 29.5476H41.582ZM42.9535 26.5264L43.7983 28.3707H42.1087L42.9535 26.5264ZM45.3288 29.5476H45.7018V26.2799H47.5834V26.0999H45.3288V29.5476ZM47.8961 27.8224C47.8956 28.1693 47.9968 28.5085 48.1871 28.7974C48.3774 29.0862 48.6481 29.3117 48.9652 29.4453C49.2823 29.5789 49.6314 29.6147 49.9686 29.5482C50.3058 29.4817 50.616 29.3158 50.8599 29.0714C51.1038 28.8271 51.2705 28.5153 51.3391 28.1754C51.4076 27.8355 51.3749 27.4827 51.2451 27.1615C51.1152 26.8404 50.894 26.5653 50.6094 26.3709C50.3249 26.1765 49.9896 26.0716 49.646 26.0694C49.4144 26.0558 49.1825 26.0918 48.9655 26.175C48.7486 26.2582 48.5516 26.3868 48.3874 26.5523C48.2231 26.7179 48.0955 26.9166 48.0127 27.1355C47.9299 27.3544 47.8939 27.5884 47.9071 27.8224H47.8961ZM48.2774 27.8224C48.2774 26.8614 48.8259 26.2217 49.6351 26.2217C50.4442 26.2217 51.0175 26.8614 51.0175 27.8224C51.0175 28.7833 50.4689 29.4257 49.6598 29.4257C48.8506 29.4257 48.302 28.7833 48.302 27.8224H48.2774ZM54.7889 26.2799V26.0999H51.6895V26.2799H53.0609V29.5476H53.4284V26.2799H54.7889ZM56.9503 29.5476C57.7512 29.5476 58.2531 29.1737 58.2531 28.6061C58.2531 28.163 57.9377 27.839 57.4111 27.7199C57.5936 27.6857 57.7593 27.5903 57.8813 27.449C58.0033 27.3077 58.0744 27.129 58.0831 26.9417C58.0831 26.4377 57.614 26.111 56.8625 26.111H55.439V29.5476H56.9503ZM55.8092 29.3648V27.8224H56.9064C57.5126 27.8224 57.8691 28.1297 57.8691 28.5922C57.8691 29.0547 57.5126 29.3648 56.9064 29.3648H55.8092ZM55.8092 27.6424V26.2799H56.8186C57.3672 26.2799 57.7018 26.5568 57.7018 26.9556C57.7018 27.3544 57.3754 27.6424 56.8186 27.6424H55.8092ZM58.7907 27.8224C58.7902 28.1697 58.8917 28.5094 59.0825 28.7985C59.2732 29.0876 59.5446 29.3131 59.8623 29.4464C60.18 29.5797 60.5298 29.6149 60.8673 29.5474C61.2048 29.48 61.5149 29.313 61.7584 29.0676C62.0018 28.8221 62.1677 28.5093 62.2351 28.1687C62.3024 27.828 62.2681 27.4749 62.1366 27.1539C62.005 26.8329 61.7821 26.5586 61.4961 26.3655C61.2101 26.1725 60.8738 26.0694 60.5297 26.0694C60.298 26.0558 60.0661 26.0918 59.8492 26.175C59.6323 26.2582 59.4352 26.3868 59.271 26.5523C59.1068 26.7179 58.9791 26.9166 58.8963 27.1355C58.8136 27.3544 58.7776 27.5884 58.7907 27.8224ZM59.172 27.8224C59.172 26.8614 59.7206 26.2217 60.5297 26.2217C61.3388 26.2217 61.8847 26.8614 61.8847 27.8224C61.8847 28.7833 61.3361 29.4257 60.5297 29.4257C59.7233 29.4257 59.172 28.7833 59.172 27.8224ZM63.0422 29.5476H63.4124V28.163H64.3862C65.1706 28.163 65.6972 27.7531 65.6972 27.1328C65.6972 26.5125 65.1706 26.1082 64.3807 26.1082H63.0422V29.5476ZM63.4124 27.9719V26.2799H64.3505C64.932 26.2799 65.316 26.6205 65.316 27.1107C65.316 27.6008 64.932 27.9581 64.3505 27.9581L63.4124 27.9719ZM66.7615 29.5476L69.0655 26.4544V29.5476H69.4358V26.0999H69.0655L66.7615 29.1987V26.0999H66.3912V29.5476H66.7615ZM73.1852 26.2799V26.0999H70.0858V26.2799H71.4572V29.5476H71.8248V26.2799H73.1852ZM76.3862 29.5476V29.3537H74.2056V27.8611H76.1091V27.6922H74.2056V26.2799H76.3862V26.0999H73.8353V29.5476H76.3862ZM76.8607 29.5781C77.4696 29.5781 77.7494 28.8774 77.8454 27.3627L77.9139 26.2771H79.5432V29.5448H79.9135V26.0999H77.7192L77.6424 27.3654C77.5629 28.5867 77.3187 29.207 77.0061 29.207C76.9534 29.2047 76.901 29.1973 76.8497 29.1848V29.5781H76.8607ZM80.8543 26.0999V29.5476H82.19C82.9827 29.5476 83.5094 29.1488 83.5094 28.5534C83.5094 27.9581 82.9827 27.5565 82.1955 27.5565H81.2438V26.0999H80.8543ZM82.1626 27.7393C82.7414 27.7393 83.1281 28.0661 83.1281 28.5534C83.1281 29.0408 82.7414 29.3648 82.1626 29.3648H81.2438V27.7393H82.1626ZM84.6065 29.5476V27.8861H86.8995V29.5476H87.2671V26.0999H86.8995V27.6922H84.6065V26.0999H84.2362V29.5476H84.6065ZM88.2134 29.5476H89.5519C90.3418 29.5476 90.8685 29.1488 90.8685 28.5534C90.8685 27.9581 90.3418 27.5565 89.5574 27.5565H88.5946V26.0999H88.2243V29.5476H88.2134ZM89.5217 27.7393C90.1032 27.7393 90.4872 28.0661 90.4872 28.5534C90.4872 29.0408 90.1032 29.3648 89.5217 29.3648H88.5946V27.7393H89.5217ZM91.6118 26.0999V29.5476H91.9766V26.0999H91.6118ZM92.9229 26.0999V29.5476H93.2959L95.5971 26.4544V29.5476H95.9702V26.0999H95.5971L93.2959 29.1987V26.0999H92.9229ZM93.5976 25.0642C93.5976 25.4824 93.924 25.7427 94.4451 25.7427C94.9663 25.7427 95.2899 25.4824 95.2899 25.0642H95.0157C94.9988 25.2061 94.931 25.3369 94.8251 25.4317C94.7192 25.5266 94.5826 25.579 94.441 25.579C94.2995 25.579 94.1628 25.5266 94.0569 25.4317C93.951 25.3369 93.8832 25.2061 93.8664 25.0642H93.5976ZM58.873 31.5691C57.9624 31.5691 57.3946 32.0981 57.3946 32.8956C57.3946 33.6931 57.9624 34.2193 58.8703 34.2193C58.9733 34.2203 59.0762 34.211 59.1775 34.1916V34.6485H59.534V34.1916C59.6353 34.2112 59.7382 34.2204 59.8412 34.2193C60.7491 34.2193 61.3142 33.6876 61.3142 32.8956C61.3142 32.1036 60.7491 31.5691 59.8358 31.5691C59.7344 31.5688 59.6333 31.579 59.534 31.5996V31.1399H59.1775V31.5996C59.0773 31.579 58.9753 31.5688 58.873 31.5691ZM59.7974 34.0614C59.7034 34.0625 59.6101 34.0446 59.5231 34.0088V31.7713C59.6094 31.7327 59.703 31.7138 59.7974 31.7159C60.0957 31.7305 60.377 31.8605 60.583 32.0788C60.789 32.2972 60.9039 32.5871 60.9039 32.8887C60.9039 33.1902 60.789 33.4802 60.583 33.6985C60.377 33.9168 60.0957 34.0468 59.7974 34.0614ZM58.9142 34.0614C58.6158 34.0468 58.3345 33.9168 58.1285 33.6985C57.9226 33.4802 57.8077 33.1902 57.8077 32.8887C57.8077 32.5871 57.9226 32.2972 58.1285 32.0788C58.3345 31.8605 58.6158 31.7305 58.9142 31.7159C59.0084 31.7147 59.1019 31.7336 59.1884 31.7713V34.0088C59.1013 34.0444 59.0081 34.0622 58.9142 34.0614ZM61.9313 32.8901C61.9313 33.2374 62.0334 33.577 62.2246 33.8658C62.4158 34.1545 62.6875 34.3796 63.0054 34.5124C63.3233 34.6452 63.6731 34.6798 64.0105 34.6118C64.3479 34.5438 64.6578 34.3764 64.9009 34.1305C65.144 33.8847 65.3094 33.5716 65.3762 33.2309C65.443 32.8901 65.4081 32.537 65.2761 32.2163C65.144 31.8955 64.9207 31.6215 64.6344 31.4289C64.3481 31.2363 64.0116 31.1338 63.6675 31.1344C63.4358 31.1211 63.204 31.1574 62.9872 31.241C62.7704 31.3246 62.5736 31.4535 62.4096 31.6193C62.2456 31.7851 62.1183 31.984 62.0358 32.203C61.9534 32.422 61.9178 32.6562 61.9313 32.8901ZM62.3126 32.8901C62.3126 31.9291 62.8611 31.2867 63.6675 31.2867C64.4739 31.2867 65.0252 31.9291 65.0252 32.8901C65.0252 33.851 64.4767 34.4907 63.6675 34.4907C62.8584 34.4907 62.3126 33.851 62.3126 32.8901ZM66.542 34.6153V32.9537H68.846V34.6153H69.2136V31.1704H68.846V32.7627H66.542V31.1704H66.1718V34.6153H66.542ZM69.8033 35.4017H70.0364L70.1434 34.6153H73.1606L73.2675 35.4017H73.5089V34.4325H72.9603V31.1648H70.8017L70.7276 32.4304C70.6591 33.5796 70.4534 34.3051 70.1791 34.4325H69.7841V35.4017H69.8033ZM70.4424 34.4325C70.7359 34.1556 70.8703 33.491 70.9389 32.411L71.0074 31.3476H72.5983V34.4325H70.4424Z" fill="#5A556E"/>
<path fill-rule="evenodd" clip-rule="evenodd" d="M17.0196 5.19509C14.5651 5.31951 12.1916 6.12181 10.1578 7.51454C8.12393 8.90726 6.5078 10.837 5.48556 13.0933C4.46332 15.3496 4.07421 17.846 4.36063 20.3102C4.64706 22.7745 5.59803 25.112 7.10989 27.0681C8.62175 29.0242 10.6365 30.5238 12.9344 31.4033C15.2324 32.2828 17.7254 32.5085 20.1417 32.0558C22.558 31.6032 24.8048 30.4895 26.6373 28.8362C28.4697 27.1829 29.8175 25.0535 30.5336 22.68C30.5407 22.6561 30.5566 22.6358 30.578 22.6235C30.5995 22.6111 30.6249 22.6075 30.6488 22.6136C30.6729 22.6189 30.694 22.6334 30.7078 22.654C30.7216 22.6746 30.727 22.6998 30.7229 22.7243C30.6927 22.9403 30.6543 23.1591 30.6159 23.3806C30.0625 26.3567 28.6625 29.1056 26.587 31.2914C24.5115 33.4773 21.8503 35.0056 18.9286 35.6895C16.0069 36.3734 12.9512 36.1833 10.1347 35.1425C7.31821 34.1018 4.86295 32.2553 3.06888 29.8287C1.2748 27.4022 0.219584 24.5006 0.0321419 21.4785C-0.155301 18.4564 0.533146 15.4445 2.01338 12.811C3.4936 10.1774 5.70153 8.03613 8.3674 6.64874C11.0333 5.26134 14.0417 4.6879 17.0251 4.99848C17.0481 5.00239 17.069 5.01441 17.0841 5.03241C17.0991 5.05041 17.1074 5.07322 17.1074 5.09678C17.1074 5.12035 17.0991 5.14316 17.0841 5.16116C17.069 5.17915 17.0481 5.19118 17.0251 5.19509H17.0196ZM3.62895 13.2923C2.18348 15.7069 1.49789 18.5076 1.6628 21.3241C1.82772 24.1405 2.83537 26.8401 4.55255 29.066C6.26973 31.2918 8.61557 32.9391 11.2799 33.7901C13.9443 34.641 16.8017 34.6555 19.4744 33.8317C16.8995 34.139 14.2895 33.7703 11.897 32.7612C9.50449 31.7521 7.41033 30.1369 5.81704 28.0716C4.22375 26.0063 3.18523 23.5609 2.80192 20.9719C2.41861 18.3828 2.70346 15.7377 3.62895 13.2923Z" fill="#DEB88A"/>
<path fill-rule="evenodd" clip-rule="evenodd" d="M7.3809 22.4308C7.3617 17.2385 14.8497 17.5127 15.6753 13.813C16.4982 17.5127 23.9916 17.2385 23.9697 22.4308C22.6284 18.4902 16.5777 19.1548 15.6753 16.3773C14.7756 19.1548 8.72215 18.4902 7.3809 22.4308Z" fill="#DEB88A"/>
<path fill-rule="evenodd" clip-rule="evenodd" d="M10.1896 23.4138C10.4607 23.4145 10.7205 23.5236 10.9122 23.7172C11.1039 23.9107 11.212 24.173 11.2127 24.4467V28.2794C10.4874 27.8609 9.80242 27.3751 9.1665 26.8283V24.4467C9.16723 24.173 9.27525 23.9107 9.46696 23.7172C9.65867 23.5236 9.91847 23.4145 10.1896 23.4138ZM21.161 23.4138C21.4321 23.4145 21.6919 23.5236 21.8837 23.7172C22.0754 23.9107 22.1834 24.173 22.1841 24.4467V29.3372C21.517 29.5673 20.8328 29.7433 20.1379 29.8634V24.4467C20.1387 24.173 20.2467 23.9107 20.4384 23.7172C20.6301 23.5236 20.8899 23.4145 21.161 23.4138ZM17.5048 23.4138C17.7759 23.4145 18.0357 23.5236 18.2274 23.7172C18.4191 23.9107 18.5272 24.173 18.5279 24.4467V30.0434C17.8453 30.0764 17.1613 30.0569 16.4817 29.9852V24.4467C16.4824 24.173 16.5904 23.9107 16.7822 23.7172C16.9739 23.5236 17.2337 23.4145 17.5048 23.4138ZM13.8486 23.4138C14.1197 23.4145 14.3795 23.5236 14.5712 23.7172C14.7629 23.9107 14.8709 24.173 14.8716 24.4467V29.7083C14.1738 29.5542 13.4894 29.3431 12.8255 29.0769V24.4467C12.8262 24.173 12.9342 23.9107 13.1259 23.7172C13.3176 23.5236 13.5774 23.4145 13.8486 23.4138Z" fill="#DEB88A"/>
<path fill-rule="evenodd" clip-rule="evenodd" d="M24.601 15.9509L24.2581 5.53857H27.8897V17.1417H29.4805L27.8897 19.2823V25.5186C27.5359 25.9196 27.1585 26.2987 26.7596 26.654V18.853L27.374 18.1192H23.2844L22.6782 17.1417H26.7596V6.87334H24.8615L24.601 15.9509Z" fill="#DEB88A"/>
<path fill-rule="evenodd" clip-rule="evenodd" d="M24.3235 4.66062C22.9109 4.22031 22.7875 2.44523 24.1617 1.584C24.8858 1.13262 25.8074 0.819692 26.0817 0C26.356 0.830769 27.2748 1.13262 28.0017 1.584C29.3731 2.44246 29.2552 4.22031 27.8398 4.66062C28.4844 4.00154 28.3665 3.33692 28.1141 2.97415C27.8618 2.61138 27.3352 2.38431 26.7646 2.12123C26.498 2.03567 26.2605 1.87642 26.0789 1.66154C25.9002 1.87953 25.6645 2.04262 25.3987 2.13231C24.8282 2.39538 24.3016 2.61692 24.0465 2.98523C23.7914 3.35354 23.6789 4.00154 24.3235 4.66062Z" fill="#DEB88A"/>
<path fill-rule="evenodd" clip-rule="evenodd" d="M21.6986 10.1879C20.4122 9.72548 19.9048 8.96394 19.5043 8.08887C19.0929 8.96394 18.5855 9.72548 17.3101 10.1879C18.5937 10.6532 19.1011 11.4119 19.5043 12.287C19.9048 11.4119 20.4122 10.6532 21.6986 10.1879Z" fill="#DEB88A"/>
</g>
<defs>
<clipPath id="clip0">
<rect width="96" height="36" fill="white"/>
</clipPath>
</defs>
</svg>
