<svg width="84" height="84" viewBox="0 0 84 84" fill="none" xmlns="http://www.w3.org/2000/svg">
<path d="M42 0C18.8514 0 0 18.8423 0 42.0243C0 65.1577 18.8514 84 42 84C65.1486 84 84 65.1577 84 42.0243C84 18.8423 65.1486 0 42 0Z" fill="white"/>
<path d="M58.0758 44.6217C57.9552 44.7825 57.3921 45.4659 56.9497 45.9081L56.7084 46.1493C53.33 49.8074 44.9243 55.3147 40.6611 57.0835C40.6611 57.1237 38.1273 58.1689 36.9207 58.2091H36.7599C34.9098 58.2091 33.1804 57.1639 32.2956 55.4755C31.813 54.551 31.3706 51.8576 31.3303 51.8174C30.9684 49.4054 30.7271 45.7111 30.7271 41.6469C30.7271 37.3858 30.9684 33.5267 31.4108 31.1549C31.4108 31.1147 31.8532 28.9439 32.1347 28.2204C32.5771 27.1752 33.3815 26.2908 34.387 25.728C35.1913 25.326 36.0359 25.125 36.9207 25.125C37.8458 25.1652 39.5752 25.7722 40.2589 26.0496C44.7634 27.8184 53.3702 33.6071 56.6682 37.1446C57.2312 37.7074 57.8345 38.3908 57.9954 38.5516C58.6791 39.436 59.0411 40.5214 59.0411 41.6912C59.0411 42.7323 58.7193 43.7775 58.0758 44.6217Z" fill="#0A8E60"/>
</svg>
