<svg width="12" height="12" viewBox="0 0 12 12" fill="none" xmlns="http://www.w3.org/2000/svg">
<path fill-rule="evenodd" clip-rule="evenodd" d="M6.875 5.125H10.375C10.8582 5.125 11.25 5.51675 11.25 6C11.25 6.48325 10.8582 6.875 10.375 6.875H6.875V10.375C6.875 10.8582 6.48325 11.25 6 11.25C5.51675 11.25 5.125 10.8582 5.125 10.375V6.875H1.625C1.14175 6.875 0.75 6.48325 0.75 6C0.75 5.51675 1.14175 5.125 1.625 5.125H5.125V1.625C5.125 1.14175 5.51675 0.75 6 0.75C6.48325 0.75 6.875 1.14175 6.875 1.625V5.125Z" fill="black" fill-opacity="0.64"/>
</svg>
