<svg width="14" height="16" viewBox="0 0 14 16" fill="none" xmlns="http://www.w3.org/2000/svg">
<path d="M11.4999 10.8125C11.1969 10.8124 10.897 10.8737 10.6183 10.9927C10.3396 11.1118 10.088 11.2861 9.87853 11.5051L4.67541 8.57762C4.77619 8.19914 4.77619 7.80087 4.67541 7.42239L9.87853 4.49493C10.2574 4.88774 10.7665 5.12894 11.3105 5.17333C11.8544 5.21772 12.3959 5.06226 12.8335 4.73608C13.271 4.40989 13.5747 3.93536 13.6875 3.40138C13.8003 2.8674 13.7145 2.31061 13.4462 1.83533C13.178 1.36004 12.7456 0.998865 12.2302 0.819466C11.7148 0.640067 11.1516 0.654752 10.6462 0.860771C10.1408 1.06679 9.72791 1.45 9.48479 1.93863C9.24167 2.42725 9.18505 2.98775 9.32553 3.51512L4.1224 6.44258C3.8116 6.11852 3.41095 5.89487 2.972 5.80038C2.53304 5.7059 2.07585 5.74491 1.65925 5.9124C1.24265 6.07989 0.885682 6.36819 0.63428 6.74022C0.382878 7.11225 0.248535 7.55099 0.248535 8C0.248535 8.44901 0.382878 8.88776 0.63428 9.25979C0.885682 9.63182 1.24265 9.92012 1.65925 10.0876C2.07585 10.2551 2.53304 10.2941 2.972 10.1996C3.41095 10.1051 3.8116 9.88148 4.1224 9.55743L9.32553 12.4849C9.20489 12.9391 9.22948 13.4196 9.39585 13.8591C9.56222 14.2986 9.86202 14.6749 10.2532 14.9354C10.6443 15.1958 11.1072 15.3272 11.5769 15.3112C12.0465 15.2952 12.4994 15.1325 12.8718 14.846C13.2443 14.5595 13.5178 14.1636 13.6538 13.7138C13.7898 13.264 13.7816 12.7829 13.6303 12.338C13.479 11.8931 13.1921 11.5067 12.8101 11.2332C12.428 10.9596 11.9699 10.8125 11.4999 10.8125Z" fill="black"/>
</svg>
