<svg width="16" height="16" viewBox="0 0 16 16" fill="none" xmlns="http://www.w3.org/2000/svg">
<path d="M6.7727 1.25L6.77273 0.75H6.7727V1.25ZM12.2954 6.7727H12.7954V6.77266L12.2954 6.7727ZM11.0342 10.3214C10.839 10.1262 10.5224 10.1262 10.3271 10.3214C10.1319 10.5167 10.1319 10.8333 10.3271 11.0285L11.0342 10.3214ZM14.3965 15.0979C14.5918 15.2932 14.9084 15.2932 15.1036 15.0979C15.2989 14.9027 15.2989 14.5861 15.1036 14.3908L14.3965 15.0979ZM6.7727 0.75C5.58152 0.75 4.41709 1.10323 3.42667 1.76501L3.98224 2.59648C4.80822 2.04458 5.7793 1.75 6.7727 1.75V0.75ZM3.42667 1.76501C2.43624 2.42679 1.6643 3.36741 1.20845 4.46791L2.13233 4.85059C2.51249 3.93282 3.15626 3.14838 3.98224 2.59648L3.42667 1.76501ZM1.20845 4.46791C0.752609 5.56841 0.63334 6.77938 0.865727 7.94766L1.84651 7.75257C1.65271 6.77827 1.75218 5.76837 2.13233 4.85059L1.20845 4.46791ZM0.865727 7.94766C1.09811 9.11595 1.67172 10.1891 2.51401 11.0314L3.22112 10.3243C2.51868 9.62184 2.04031 8.72688 1.84651 7.75257L0.865727 7.94766ZM2.51401 11.0314C3.3563 11.8737 4.42944 12.4473 5.59773 12.6797L5.79282 11.6989C4.81851 11.5051 3.92355 11.0267 3.22112 10.3243L2.51401 11.0314ZM5.59773 12.6797C6.76602 12.9121 7.97698 12.7928 9.07748 12.3369L8.6948 11.4131C7.77702 11.7932 6.76713 11.8927 5.79282 11.6989L5.59773 12.6797ZM9.07748 12.3369C10.178 11.8811 11.1186 11.1092 11.7804 10.1187L10.9489 9.56316C10.397 10.3891 9.61258 11.0329 8.6948 11.4131L9.07748 12.3369ZM11.7804 10.1187C12.4422 9.1283 12.7954 7.96387 12.7954 6.7727H11.7954C11.7954 7.76609 11.5008 8.73718 10.9489 9.56316L11.7804 10.1187ZM12.7954 6.77266C12.7953 5.17538 12.1607 3.64356 11.0313 2.51411L10.3242 3.22122C11.2661 4.16314 11.7953 5.44064 11.7954 6.77273L12.7954 6.77266ZM11.0313 2.51411C9.90184 1.38466 8.37001 0.750102 6.77273 0.75L6.77267 1.75C8.10475 1.75008 9.38225 2.27929 10.3242 3.22122L11.0313 2.51411ZM10.3271 11.0285L14.3965 15.0979L15.1036 14.3908L11.0342 10.3214L10.3271 11.0285Z" fill="black"/>
</svg>
