<svg width="5" height="8" viewBox="0 0 5 8" fill="none" xmlns="http://www.w3.org/2000/svg">
<path d="M1.41664 7.7918C1.29008 7.79204 1.16743 7.74797 1.06998 7.66721C1.01513 7.62174 0.96979 7.56589 0.936558 7.50287C0.903325 7.43985 0.882852 7.37089 0.876311 7.29995C0.86977 7.229 0.877289 7.15746 0.898439 7.08943C0.919588 7.02139 0.95395 6.9582 0.99956 6.90346L3.42623 4.00013L1.08623 1.09138C1.04123 1.03597 1.00763 0.972223 0.987357 0.903789C0.967081 0.835355 0.960531 0.763589 0.968081 0.692615C0.975631 0.621641 0.997134 0.55286 1.03135 0.490223C1.06557 0.427587 1.11183 0.37233 1.16748 0.327631C1.22352 0.278319 1.28915 0.241124 1.36025 0.21838C1.43135 0.195636 1.50639 0.187834 1.58065 0.195463C1.6549 0.203093 1.72678 0.225989 1.79178 0.262715C1.85677 0.299441 1.91346 0.349204 1.95831 0.408881L4.57456 3.65888C4.65423 3.7558 4.69778 3.87738 4.69778 4.00284C4.69778 4.1283 4.65423 4.24988 4.57456 4.3468L1.86623 7.5968C1.81189 7.66235 1.74286 7.71417 1.66475 7.74805C1.58663 7.78193 1.50163 7.79692 1.41664 7.7918Z" fill="black" fill-opacity="0.64"/>
</svg>
