<svg width="24" height="24" viewBox="0 0 24 24" fill="none" xmlns="http://www.w3.org/2000/svg">
<path fill-rule="evenodd" clip-rule="evenodd" d="M12 24C18.6274 24 24 18.6274 24 12C24 5.37259 18.6274 0 12 0C5.37259 0 0 5.37259 0 12C0 18.6274 5.37259 24 12 24ZM7.73334 16.6334V14.5434L13.7833 8.43835L15.8733 10.5284L9.82333 16.6334H7.73334ZM17.4683 8.16336C17.6883 8.38336 17.6883 8.71335 17.4683 8.93335L16.5333 9.97833L14.4433 7.88834L15.4333 6.89835C15.6533 6.67834 15.9833 6.67834 16.2033 6.89835L17.4683 8.16336Z" fill="#5E5E5E"/>
</svg>
