<svg width="29" height="29" viewBox="0 0 29 29" fill="none" xmlns="http://www.w3.org/2000/svg">
<path d="M14.5 3.44375C16.675 3.44375 18.3062 5.075 18.3062 7.25C18.3062 9.425 16.675 11.0563 14.5 11.0563C12.325 11.0563 10.6938 9.425 10.6938 7.25C10.6938 5.075 12.325 3.44375 14.5 3.44375ZM14.5 19.7563C19.9375 19.7563 25.5562 22.475 25.5562 23.5625V25.5562H3.44375V23.5625C3.44375 22.475 9.0625 19.7563 14.5 19.7563ZM14.5 0C10.5125 0 7.25 3.2625 7.25 7.25C7.25 11.2375 10.5125 14.5 14.5 14.5C18.4875 14.5 21.75 11.2375 21.75 7.25C21.75 3.2625 18.4875 0 14.5 0ZM14.5 16.3125C9.60625 16.3125 0 18.6688 0 23.5625V29H29V23.5625C29 18.6688 19.3938 16.3125 14.5 16.3125Z" fill="#0A8E60"/>
</svg>
