<svg width="29" height="29" viewBox="0 0 29 29" fill="none" xmlns="http://www.w3.org/2000/svg">
<path d="M14.5 29C16.095 29 17.4 27.695 17.4 26.1H11.6C11.6 27.695 12.905 29 14.5 29ZM23.925 20.3V12.325C23.925 7.83 20.88 4.205 16.675 3.19V2.175C16.675 1.015 15.66 0 14.5 0C13.34 0 12.325 1.015 12.325 2.175V3.19C8.11999 4.205 5.07499 7.83 5.07499 12.325V20.3L2.17499 23.2V24.65H26.825V23.2L23.925 20.3ZM21.025 21.75H7.97499V12.325C7.97499 8.7 10.875 5.8 14.5 5.8C18.125 5.8 21.025 8.7 21.025 12.325V21.75Z" fill="#0A8E60"/>
</svg>
