<svg width="28" height="20" viewBox="0 0 28 20" fill="none" xmlns="http://www.w3.org/2000/svg">
<path fill-rule="evenodd" clip-rule="evenodd" d="M6.15056 0H13.8733C17.1027 0 19.3574 2.22538 19.3574 5.41455V14.5854C19.3574 17.7746 17.1027 20 13.8733 20H6.15056C2.92119 20 0.666504 17.7746 0.666504 14.5854V5.41455C0.666504 2.22538 2.92119 0 6.15056 0ZM24.6105 3.172C25.1958 2.8742 25.8825 2.90533 26.4411 3.25727C26.9998 3.60787 27.3331 4.217 27.3331 4.88299V15.1179C27.3331 15.7852 26.9998 16.393 26.4411 16.7436C26.1358 16.9344 25.7945 17.0319 25.4505 17.0319C25.1638 17.0319 24.8771 16.9642 24.6091 16.8275L22.6344 15.8312C21.9038 15.4603 21.4504 14.7158 21.4504 13.8887V6.11074C21.4504 5.28232 21.9038 4.53782 22.6344 4.16963L24.6105 3.172Z" fill="white"/>
</svg>
