<svg width="15" height="14" viewBox="0 0 15 14" fill="none" xmlns="http://www.w3.org/2000/svg">
<path d="M14.5 7C14.5 3.13418 11.3658 0 7.5 0C3.63418 0 0.5 3.13418 0.5 7C0.5 10.8658 3.63418 14 7.5 14C11.3658 14 14.5 10.8658 14.5 7ZM7.34351 10.0746C7.2933 10.0248 7.25339 9.96561 7.22606 9.90038C7.19873 9.83515 7.18452 9.76517 7.18424 9.69445C7.18396 9.62373 7.19761 9.55364 7.22442 9.4882C7.25123 9.42275 7.29067 9.36323 7.34048 9.31303L9.10125 7.53846H4.60577C4.46296 7.53846 4.326 7.48173 4.22502 7.38075C4.12404 7.27977 4.06731 7.14281 4.06731 7C4.06731 6.85719 4.12404 6.72023 4.22502 6.61925C4.326 6.51827 4.46296 6.46154 4.60577 6.46154H9.10125L7.34048 4.68697C7.29067 4.63672 7.25125 4.57715 7.22446 4.51167C7.19768 4.44618 7.18405 4.37606 7.18436 4.30531C7.18468 4.23456 7.19892 4.16456 7.22628 4.09932C7.25365 4.03407 7.2936 3.97486 7.34385 3.92505C7.3941 3.87524 7.45366 3.83582 7.51915 3.80903C7.58463 3.78224 7.65475 3.76862 7.7255 3.76893C7.86839 3.76956 8.00518 3.82693 8.10577 3.92841L10.7775 6.62072C10.8776 6.72158 10.9338 6.85791 10.9338 7C10.9338 7.14209 10.8776 7.27842 10.7775 7.37928L8.10577 10.0716C8.05595 10.1219 7.99671 10.1619 7.93141 10.1893C7.86612 10.2167 7.79607 10.2309 7.72527 10.2312C7.65447 10.2315 7.5843 10.2178 7.5188 10.1909C7.45329 10.1641 7.39372 10.1245 7.34351 10.0746Z" fill="white"/>
</svg>
