<?xml version="1.0" standalone="no"?>
<!DOCTYPE svg PUBLIC "-//W3C//DTD SVG 20010904//EN"
 "http://www.w3.org/TR/2001/REC-SVG-20010904/DTD/svg10.dtd">
<svg version="1.0" xmlns="http://www.w3.org/2000/svg"
 width="926.000000pt" height="1088.000000pt" viewBox="0 0 926.000000 1088.000000"
 preserveAspectRatio="xMidYMid meet" style="background: #313139;">

<g transform="translate(0.000000,1088.000000) scale(0.100000,-0.100000)"
fill="rgb(222, 184, 138)" stroke="none">
<path d="M7796 10795 c-15 -29 -43 -71 -62 -94 -43 -49 -191 -149 -372 -251
-166 -93 -246 -158 -304 -247 -61 -92 -89 -171 -95 -268 -10 -145 39 -269 145
-365 52 -48 157 -108 169 -97 3 4 -9 23 -27 44 -18 20 -44 60 -57 89 -71 157
-42 309 82 422 52 47 158 105 397 216 31 15 79 47 106 71 l49 44 34 -35 c23
-24 102 -69 246 -139 234 -114 301 -163 352 -260 23 -45 26 -60 26 -155 -1
-118 -13 -157 -79 -243 -21 -27 -35 -51 -33 -54 14 -13 128 57 183 111 175
176 180 434 11 654 -54 71 -124 124 -282 212 -172 97 -311 189 -357 237 -21
21 -53 66 -71 100 l-33 62 -28 -54z"/>
<path d="M4245 9369 c-837 -70 -1664 -384 -2355 -892 -239 -176 -531 -446
-742 -687 -99 -113 -263 -330 -360 -476 -671 -1010 -929 -2256 -712 -3444 141
-772 466 -1485 961 -2107 134 -168 464 -507 628 -645 675 -566 1482 -924 2353
-1043 89 -12 219 -15 625 -15 464 0 525 2 652 21 281 41 562 110 854 211 349
120 682 285 1019 504 448 292 887 713 1207 1159 272 378 507 839 648 1271 104
316 212 813 184 842 -24 23 -43 3 -66 -71 -159 -500 -416 -966 -764 -1386
-127 -152 -403 -424 -553 -545 -988 -791 -2259 -1073 -3479 -771 -1064 263
-1975 955 -2524 1915 -465 813 -635 1757 -485 2689 127 792 483 1523 1032
2118 216 234 460 441 739 626 187 123 300 188 460 264 447 210 884 333 1348
378 220 21 217 21 213 48 -2 17 -12 24 -48 30 -68 12 -709 17 -835 6z m-3209
-2651 c-168 -482 -259 -1073 -242 -1579 16 -496 86 -900 231 -1334 241 -723
603 -1305 1137 -1831 228 -225 427 -385 688 -556 261 -171 454 -274 713 -382
438 -182 838 -285 1312 -336 235 -26 657 -23 915 5 25 3 -9 -10 -80 -30 -755
-211 -1582 -192 -2345 55 -239 78 -546 212 -750 328 -585 333 -1096 817 -1461
1383 -166 258 -336 612 -437 909 -192 565 -263 1191 -202 1785 50 483 170 918
375 1360 46 101 189 375 195 375 2 0 -20 -69 -49 -152z"/>
<path d="M7281 9123 c1 -203 96 -2896 101 -2883 3 8 20 548 37 1200 17 652 34
1224 37 1273 l6 87 284 0 284 0 0 -1540 0 -1540 -615 0 -614 0 88 -142 89
-143 618 -5 617 -5 -91 -109 -92 -108 0 -1170 0 -1170 95 89 c52 49 128 126
170 170 l75 81 0 936 0 935 235 316 c129 173 235 318 235 320 0 3 -106 5 -235
5 l-235 0 0 1740 0 1740 -545 0 -545 0 1 -77z"/>
<path d="M5800 8333 c-80 -156 -208 -305 -333 -392 -39 -26 -175 -97 -247
-128 -24 -10 -24 -11 -5 -18 11 -4 65 -29 120 -56 192 -93 343 -242 459 -453
l57 -105 41 77 c61 117 123 205 196 280 92 94 164 145 299 209 63 31 113 56
111 58 -2 1 -41 19 -87 39 -224 98 -396 264 -519 503 -20 40 -39 73 -42 73 -3
0 -25 -39 -50 -87z"/>
<path d="M4680 6643 c-60 -189 -171 -340 -361 -493 -182 -146 -305 -221 -704
-427 -540 -279 -779 -431 -979 -623 -209 -201 -328 -401 -387 -650 -23 -98
-37 -312 -18 -270 7 14 25 54 41 90 79 176 258 380 458 522 181 128 494 274
960 447 639 237 862 382 982 638 l31 65 32 -68 c58 -125 140 -216 286 -317
143 -99 305 -173 728 -332 328 -123 547 -216 691 -291 356 -188 602 -434 717
-718 l33 -81 0 55 c0 87 -26 247 -55 340 -101 323 -318 583 -685 823 -159 103
-275 169 -565 320 -574 297 -743 406 -926 594 -115 117 -184 228 -233 373
l-24 72 -22 -69z"/>
<path d="M2933 3806 c-64 -30 -122 -88 -154 -152 l-24 -49 -3 -396 -3 -396 73
-60 c124 -101 257 -198 398 -287 l135 -86 3 606 2 606 -26 59 c-28 61 -86 124
-145 155 -22 12 -63 19 -119 21 -74 4 -92 1 -137 -21z"/>
<path d="M4055 3818 c-79 -29 -146 -94 -184 -178 -20 -44 -21 -63 -21 -776 l0
-731 33 -10 c17 -6 76 -27 129 -47 86 -31 328 -102 416 -121 l32 -7 0 816 c0
795 0 817 -20 870 -26 69 -84 134 -146 166 -38 19 -67 25 -129 27 -44 1 -93
-3 -110 -9z"/>
<path d="M5146 3815 c-78 -27 -166 -121 -187 -198 -12 -43 -20 -1739 -8 -1751
11 -11 439 -28 524 -21 l86 7 -3 871 -3 872 -26 56 c-54 115 -152 179 -274
178 -38 0 -87 -6 -109 -14z"/>
<path d="M6233 3811 c-97 -45 -161 -123 -182 -220 -11 -52 -17 -1691 -6 -1691
43 0 429 98 545 138 l55 19 0 784 c0 877 6 804 -72 890 -63 69 -114 93 -212
96 -70 3 -94 0 -128 -16z"/>
</g>
</svg>
